{"title":"Fifty Shades of Grey 2015 DVDrip English Klam","uid":11894824,"size":1410683762,"categoryP":"video","categoryS":"movies","magnet":"?xt=urn:btih:a2abd54642110ef7df6097e738e4287e6154fa21&amp;dn=Fifty+Shades+of+Grey+2015+DVDrip+English+Klam&amp;tr=udp%3A%2F%2Ftracker.openbittorrent.com%3A80&amp;tr=udp%3A%2F%2Fopen.demonii.com%3A1337&amp;tr=udp%3A%2F%2Ftracker.coppersurfer.tk%3A6969&amp;tr=udp%3A%2F%2Fexodus.desync.com%3A6969","seeders":17,"leechers":1,"uploader":"Klambake","files":6,"time":1431126653,"description":"[img]http://i.imgur.com/lIJ8X2D.jpg[/img]\n\nWith: Dakota Johnson, Jamie Dornan and Eloise Mumford\n\nAnastasia is net afgestudeerd aan de universiteit, samen met haar beste vriendin Kate. Terwijl Kate aan de slag gaat bij een lokale krant, komt Anastasia moeilijk aan de bak met haar universitaire graad en besluit ze een baan aan te nemen in een bouwmarkt. Op een dag vraagt een zieke Kate haar om een interview over te nemen met ene Christian Grey. Een succesvolle entrepreneur en miljardair. Het blijkt het begin te zijn van een bijzondere relatie.\n\nLiterature student Anastasia Steele's life changes forever when she meets handsome, yet tormented, billionaire Christian Grey.\n &lt;a href=&quot;\nhttp://www.imdb.com/title/tt2322441&quot; rel=&quot;nofollow&quot; target=&quot;_NEW&quot;&gt;\nhttp://www.imdb.com/title/tt2322441&lt;/a&gt;\n\n--------------------- Dutch Friends 4ever ---------------------\n---------------------------------------------------------------\n- Bezoek ook eens mijn vrienden op: &lt;a href=&quot; http://www.Film-Test.nl&quot; rel=&quot;nofollow&quot; target=&quot;_NEW&quot;&gt; http://www.Film-Test.nl&lt;/a&gt; --\n----- voor mijn Nederlandse Sync. ondertitels ---- en meer ----\n------- http://www.Film-Test.nl ---- Over Films en meer -------\n---------------------------------------------------------------\n &lt;a href=&quot;\nhttp://i.imgur.com/AUdxbPL.jpg&quot; rel=&quot;nofollow&quot; target=&quot;_NEW&quot;&gt;\nhttp://i.imgur.com/AUdxbPL.jpg&lt;/a&gt; &lt;a href=&quot;\nhttp://i.imgur.com/837XLYh.jpg&quot; rel=&quot;nofollow&quot; target=&quot;_NEW&quot;&gt;\nhttp://i.imgur.com/837XLYh.jpg&lt;/a&gt; &lt;a href=&quot;\nhttp://i.imgur.com/p4yBXOS.jpg&quot; rel=&quot;nofollow&quot; target=&quot;_NEW&quot;&gt;\nhttp://i.imgur.com/p4yBXOS.jpg&lt;/a&gt;\n\nGeneral:\n\nComplete name                            : Fifty Shades of GreyFifty Shades of Grey.avi\nFormat                                   : AVI\nFormat/Info                              : Audio Video Interleave\nFile size                                : 1.31 GiB\nDuration                                 : 2h 8mn\nOverall bit rate                         : 1 464 Kbps\n\nVideo:\n\nFormat                                   : MPEG-4 Visual\nFormat profile                           : Simple@L3\nFormat settings, BVOP                    : No\nFormat settings, QPel                    : No\nFormat settings, GMC                     : No warppoints\nFormat settings, Matrix                  : Default (H.263)\nCodec ID                                 : XVID\nCodec ID/Hint                            : XviD\nDuration                                 : 2h 8mn\nBit rate                                 : 1 005 Kbps\nWidth                                    : 720 pixels\nHeight                                   : 304 pixels\nDisplay aspect ratio                     : 2.35:1\nFrame rate                               : 25.000 fps\nColor space                              : YUV\nChroma subsampling                       : 4:2:0\nBit depth                                : 8 bits\nScan type                                : Progressive\nCompression mode                         : Lossy\nBits/(Pixel*Frame)                       : 0.184\nStream size                              : 923 MiB (69%)\nWriting library                          : XviD 1.1.2 (UTC 2006-11-01)\n\nAudio:\n\nFormat                                   : AC-3\nFormat/Info                              : Audio Coding 3\nMode extension                           : CM (complete main)\nFormat settings, Endianness              : Big\nCodec ID                                 : 2000\nDuration                                 : 2h 8mn\nSource duration                          : 2h 8mn\nBit rate mode                            : Constant\nBit rate                                 : 448 Kbps\nChannel(s)                               : 6 channels\nChannel positions                        : Front: L C R, Side: L R, LFE\nSampling rate                            : 48.0 KHz\nBit depth                                : 16 bits\nCompression mode                         : Lossy\nStream size                              : 412 MiB (31%)\nAlignment                                : Aligned on interleaves\nInterleave, duration                     : 32 ms (0.80 video frame)\nInterleave, preload duration             : 512 ms","torrent":{"xt":"urn:btih:a2abd54642110ef7df6097e738e4287e6154fa21","amp;dn":"Fifty+Shades+of+Grey+2015+DVDrip+English+Klam","amp;tr":["udp%3A%2F%2Ftracker.openbittorrent.com%3A80","udp%3A%2F%2Fopen.demonii.com%3A1337","udp%3A%2F%2Ftracker.coppersurfer.tk%3A6969","udp%3A%2F%2Fexodus.desync.com%3A6969"],"infoHash":"a2abd54642110ef7df6097e738e4287e6154fa21","infoHashBuffer":{"type":"Buffer","data":[162,171,213,70,66,17,14,247,223,96,151,231,56,228,40,126,97,84,250,33]},"announce":[],"urlList":[]}}